<svg xmlns:xlink="http://www.w3.org/1999/xlink" width="18" height="18" xmlns="http://www.w3.org/2000/svg" x="20" y="20" viewBox="0 0 55 56"><path fill="#1967B0" d="M37.002 57h-36L1 1.001H56v55.998L37.003 57m6.868-12.02h5.166l-6.79-31.94c-3.065 1.16-7.418 1.587-7.91 3.194-2.833 9.272-4.754 18.823-7.038 28.51h6.335l1.6-6.54h5.583c.775 2.27 1.507 4.416 3.054 6.776M9.989 26.512v18.215h15.28c-.135-1.7-.245-3.093-.39-4.945h-8.064v-7.537l7.12-.46v-4.602l-6.98-.424v-7.958h8.004l-.473-4.502H9.989v12.213z"></path><path fill="#F6F8FC" d="M43.463 44.873c-1.14-2.253-1.872-4.399-2.647-6.669h-5.582l-1.601 6.54h-6.335c2.284-9.687 4.205-19.238 7.039-28.51.49-1.607 4.844-2.034 7.909-3.194l6.79 31.94c-1.945 0-3.556 0-5.573-.107m-7.256-14.376c-.645 4.099 1.6 3.285 4.306 2.464L38.87 23.14l-1.069.038c-.48 2.18-.959 4.36-1.594 7.319z"></path><path fill="#F9FAFD" d="M9.989 26.016V14.299h14.497l.473 4.502h-8.004v7.958l6.98.424v4.602l-7.12.46v7.537h8.063l.39 4.945H9.988V26.016z"></path><path fill="#467FBE" d="M36.284 30.108c.558-2.57 1.038-4.75 1.517-6.93l1.069-.038 1.643 9.821c-2.705.821-4.951 1.635-4.229-2.853z"></path></svg>