<svg viewBox="0 0 18 19" xmlns:xlink="http://www.w3.org/1999/xlink" xmlns="http://www.w3.org/2000/svg" width="18" height="19"><path fill="#696969" d="M4.125 17.072a3.374 3.374 0 110-6.75 3.374 3.374 0 110 6.75zm0-1.5a1.875 1.875 0 100-3.75 1.875 1.875 0 000 3.75zm9.75 1.5a3.374 3.374 0 110-6.75 3.374 3.374 0 110 6.75zm0-1.5a1.875 1.875 0 100-3.75 1.875 1.875 0 000 3.75zM8.267 9.05l1.483 1.27v4.5h-1.5v-3.75L6.21 9.373A1.5 1.5 0 016 7.076l2.121-2.12a1.497 1.497 0 012.122 0l1.06 1.06a5.225 5.225 0 002.938 1.48l-.008 1.512a6.723 6.723 0 01-3.99-1.931L8.267 9.05zM12 5.07a1.5 1.5 0 11-.001-2.999A1.5 1.5 0 0112 5.07z"></path></svg>