<svg viewBox="0 0 24 24" xmlns:xlink="http://www.w3.org/1999/xlink" xmlns="http://www.w3.org/2000/svg" width="24" height="24"><defs><filter id="electrico_svg__a"><feColorMatrix in="SourceGraphic" values="0 0 0 0 1.000000 0 0 0 0 1.000000 0 0 0 0 1.000000 0 0 0 1.000000 0"></feColorMatrix></filter></defs><g fill="none" fill-rule="evenodd"><circle cx="12" cy="12" r="12" fill="#79B833"></circle><g filter="url(#electrico_svg__a)" fill="none"><path fill="#77B72A" d="M14.892 13.635c.407.004.794-.362.809-.767.015-.4-.393-.813-.8-.808-.399.006-.801.39-.812.774-.01.406.38.796.803.8m-5.777 0c.43-.004.812-.386.803-.8-.008-.386-.41-.768-.812-.774-.407-.006-.815.405-.802.808.013.402.403.772.81.767M12 11.09l3.362-.001c.312 0 .331-.034.242-.291-.166-.478-.332-.955-.483-1.437-.191-.61-.185-.611-.832-.61-.973 0-1.946.004-2.918-.002-.659-.003-1.317-.026-1.975-.029-.169 0-.313.03-.379.25-.18.604-.4 1.196-.6 1.794-.103.304-.087.325.248.325H12m8.351 2.196h-3.626v.857c0 .465.005.931-.002 1.397-.007.5-.146.63-.651.633h-.365c-.34-.005-.509-.163-.525-.49-.025-.528-.025-.527-.579-.527-1.816 0-3.632.005-5.447-.006-.26-.002-.375.06-.332.323.013.082.005.169 0 .253a.461.461 0 01-.463.446c-.14.004-.278.002-.417.001-.508-.002-.66-.128-.664-.625-.01-1.27-.023-2.541.01-3.81.008-.324.17-.647.28-.964.264-.756.539-1.508.81-2.261.13-.361.377-.514.853-.515 1.842-.003 3.684-.002 5.526 0 .11 0 .22.029.332.042.275.033.432.207.518.44.36.981.725 1.961 1.062 2.95.08.233.055.5.08.783h.276c1.381 0 2.763.005 4.144-.006.252-.002.323.076.328.318a9.003 9.003 0 01-1.159 4.656 9.603 9.603 0 01-1.555 2.035 9.17 9.17 0 01-3.128 2.076 9.577 9.577 0 01-4.23.69c-1.511-.093-2.921-.497-4.222-1.246-1.822-1.05-3.145-2.527-3.97-4.433-.602-1.388-.818-2.836-.705-4.324.086-1.15.406-2.25.926-3.291a9.247 9.247 0 011.888-2.548C6.65 4.89 8.21 4.08 9.996 3.685c.059-.013.121-.009.181-.017.182-.024.289-.086.345-.295.22-.82.94-1.347 1.813-1.363.365-.007.73.008 1.095-.01.223-.01.299.074.282.278-.009.117-.001.235-.001.393.381 0 .744-.013 1.104.007a.642.642 0 01.385.15.433.433 0 01.093.353c-.033.146-.114.302-.328.301-.277 0-.555.012-.833.018-.129.002-.257 0-.408 0v.99c.378 0 .749.003 1.12 0 .19-.002.33.069.423.236.149.264-.018.57-.326.575-.397.006-.795.002-1.232.002 0 .178.02.339-.008.492-.014.073-.117.187-.178.186-.535-.009-1.074-.006-1.603-.072-.613-.076-1.023-.462-1.28-.994-.089-.186-.174-.229-.39-.184a8.39 8.39 0 00-3.753 1.84c-1.534 1.298-2.46 2.927-2.79 4.879-.21 1.235-.145 2.467.233 3.656a8.167 8.167 0 002.159 3.46 8.392 8.392 0 003.448 2.02 8.33 8.33 0 004.15.185 8.493 8.493 0 004.058-2.06 7.962 7.962 0 002.197-3.317c.224-.642.38-1.291.408-1.969.002-.04-.005-.08-.01-.139"></path></g></g></svg>