<svg viewBox="0 0 17 19" xmlns:xlink="http://www.w3.org/1999/xlink" xmlns="http://www.w3.org/2000/svg" width="17" height="19"><g fill="none" fill-rule="evenodd"><path fill="#D70029" d="M0 8.942C0 4.264 3.752.472 8.38.472c4.627 0 8.379 3.792 8.379 8.47 0 4.678-3.752 8.47-8.38 8.47C3.752 17.411 0 13.619 0 8.941"></path><path fill="#FFFFFF" d="M8.357 3.208c3.133 0 5.672 2.567 5.672 5.734 0 3.166-2.539 5.734-5.672 5.734-2.89 0-5.277-2.187-5.628-5.014h2.836c.265 1.309 1.41 2.293 2.782 2.293 1.568 0 2.84-1.285 2.84-2.87 0-1.586-1.272-2.87-2.84-2.87l.01-.022V3.208z"></path></g></svg>