<svg xmlns:xlink="http://www.w3.org/1999/xlink" id="aparcapatinetes_svg__Capa_1" xmlns="http://www.w3.org/2000/svg" x="0" y="0" viewBox="0 0 1150.8 1102.8" width="25" height="26"><style>.aparcapatinetes_svg__st0{fill:#6a6a6a;stroke:#6a6a6a;stroke-width:11.5847;stroke-miterlimit:10}.aparcapatinetes_svg__st1{fill:#fff}.aparcapatinetes_svg__st2{fill:#6a6a6a}</style><path class="aparcapatinetes_svg__st0" d="M707.6 967.3c6.7 0 8.2-1.3 8.3-8.1.1-13.2-.7-26.4.1-39.6.4-7.4 1.6-15.6 5.4-21.9 6.4-10.7 18.3-15.2 30.6-15.9 17.3-1.1 34.7-.6 52.1-.5 15.6.1 31.2.4 46.7 1 17.8.7 32.9 17.6 31.6 34.6-.5 6.6 1.9 9.2 8.7 9.1 20.2 0 40.3-.2 60.5-.1 10.7 0 17.9 6.2 20.4 15.1 3 10.4-10.9 22.8-20.6 22.7-18-.1-36 .3-54-.1-14.8-.4-14.8-.8-14.6 13.9.1 5.3-.2 10.7 0 16 .2 5.1 3 7.3 8.5 7.1 18.9-.6 37.9-.9 56.9-1.1 8-.1 14.5 2.7 20.4 8.5 7.3 7.1 2.7 24-7.5 26.7-3.6 1-7.3 2.3-10.9 2.3-19.3-.1-38.7-.4-58-.9-7.2-.2-10.5 1.9-9.6 8.8 2.3 17.6-17 36.9-36.3 36.3-32-1-64.1-.2-96.1-.2-18.3 0-34.2-16.3-34.3-35.2-.1-13.4.1-26.8.3-40.2.1-8.6-2.8-11-11.4-10.3-5.7.5-11.4.5-17.2.5-86.6 0-111.4.7-198.1.1-372.4 9.7-300.3-335.5-97.6-339.7 7.6-.2 11.8-4.4 19.3-6.2 2-.5 10.4-5.2 11.8-6.7 11.5-12.1 26.6-16.9 42.5-21 16-4.1 66.2-12.3 112.3 23.1 3.3 3.2 7.7 5.5 10.8 8.9 13.7 14.6 16.2 17.6 21.9 28.2 2.2 4.1 5.4 6.2 10.4 6.1 49.2-.2 98.5-.3 147.7-.3 22.5 0 45.1.2 67.6.4 5.4.1 8.9-2.5 11.5-6.8 3.6-5.9 6.6-12.3 10.9-17.6 11.3-14.2 25.1-25.9 40.8-35.4 9.8-6 9.5-5.7 7.2-16.7-3.5-16.4-6-33.1-9.4-49.5-5.9-28.7-12.1-57.4-18.1-86.2-6.3-30.1-12.6-60.1-18.9-90.2-1.8-8.8-3.9-17.5-5.6-26.3-1.2-6.5-.8-13.1 3.1-18.8 4.3-6.2 4.3-12.4 2.6-19.6-4.8-21.4-8.7-43-13.2-64.5-3.1-15.3-6.2-30.7-10-45.9-.8-3-3.9-6.6-6.9-7.9-14.3-6.2-17-20.1-16.1-29.4 1.2-12.6 11.2-23.4 24.3-25.8 5.5-1 12.1-.5 17.2 1.6 15.3 6.3 23.7 26.9 15 40.5-6.5 10.1-5.3 18.9-3.2 29 7.2 34 13.9 68.2 21.2 102.2.7 3.4 3.1 7.6 6.1 9.2 9.7 5.4 13.1 14.4 15.1 23.6 6.1 28 11.1 56.1 16.9 84.2 7.4 35.7 15.3 71.2 23 106.8 4.1 19 8.4 38 12.5 57 1.8 8.6 4.5 10.6 13.5 11.3 14.1 1.1 27.6 4.8 39.9 11.4 6 3.3 23.2 13.9 27.6 19.1 18.5 19.8 2.1 36.9-8.5 38.4-4.3.6-9.3-1.9-13.5-4-11.2-5.5-21.7-12.5-33.2-17.3-16.4-6.7-33.6-5.8-50.2-.5-7.4 2.4-14.3 6.4-21.4 9.7-21.4 10.1-31.3 28.8-39.2 48.9-3.4 8.8-6.4 11.2-16.2 11.2H600.9c-12.8 0-14.4-2.1-20-13-5.6-11-11.5-22.7-20.4-31.1-15.5-14.8-35.3-22.6-57.4-23.7-16.5-.8-32.1 1.8-46.6 10.2-4.2 2.4-9 4.1-13.8 4.9-3.6.6-8.1.3-11.3-1.3-5-2.5-10.9-5-16.5-4.5-135.6 11.3-172.7 105.5-165.4 159.7 10.5 77.8 74 147 246.5 137.4.4.1 164.4-1.7 211.6-1.7z" stroke="#6A6A6A" fill="#6A6A6A" stroke-width="11.5847px"></path><ellipse class="aparcapatinetes_svg__st0" cx="497.6" cy="757.4" rx="73.5" ry="74.2" stroke="#6A6A6A" fill="#6A6A6A" stroke-width="11.5847px"></ellipse><ellipse class="aparcapatinetes_svg__st1" cx="497.6" cy="757.4" rx="56.1" ry="56.6" fill="#FFFFFF"></ellipse><ellipse class="aparcapatinetes_svg__st2" cx="497.6" cy="757.4" rx="47.2" ry="47.7" fill="#6A6A6A"></ellipse><g><ellipse class="aparcapatinetes_svg__st0" cx="974.1" cy="757.4" rx="73.5" ry="74.2" stroke="#6A6A6A" fill="#6A6A6A" stroke-width="11.5847px"></ellipse><ellipse class="aparcapatinetes_svg__st1" cx="974.1" cy="757.4" rx="56.1" ry="56.6" fill="#FFFFFF"></ellipse><ellipse class="aparcapatinetes_svg__st2" cx="974.1" cy="757.4" rx="47.2" ry="47.7" fill="#6A6A6A"></ellipse></g></svg>