<svg viewBox="0 0 21 23" xmlns:xlink="http://www.w3.org/1999/xlink" xmlns="http://www.w3.org/2000/svg" width="21" height="23"><g fill="none" fill-rule="evenodd"><path d="M0 .378h21v21.227H0z" fill="none"></path><path fill="#696969" fill-rule="nonzero" d="M15.665 17.948l1.623 1.296v.431H4.667v-.431l1.622-1.295H4.667c-.996 0-1.803-.773-1.803-1.727V6.726c0-1.907 1.614-3.453 3.606-3.453h9.015c1.991 0 3.606 1.546 3.606 3.453v9.496c0 .954-.807 1.727-1.803 1.727h-1.623zM6.47 5c-.996 0-1.803.773-1.803 1.727v9.496h12.62V6.726c0-.954-.806-1.727-1.802-1.727H6.47zm4.507 10.36c-.996 0-1.803-.773-1.803-1.727 0-.953.807-1.726 1.803-1.726.996 0 1.803.773 1.803 1.726 0 .954-.807 1.727-1.803 1.727zM5.568 6.726h10.818v3.452H5.568V6.726z"></path></g></svg>